<svg width="58" height="60" viewBox="0 0 58 60" fill="none" xmlns="http://www.w3.org/2000/svg">
<rect width="58" height="60" rx="4" fill="url(#paint0_linear_260111_1136)"/>
<rect x="1" y="1" width="56" height="58" rx="4" fill="#121212"/>
<path d="M24 33.375C25.0355 33.375 25.875 32.5355 25.875 31.5C25.875 30.4645 25.0355 29.625 24 29.625C22.9645 29.625 22.125 30.4645 22.125 31.5C22.125 32.5355 22.9645 33.375 24 33.375Z" fill="url(#paint1_linear_260111_1136)"/>
<path d="M34 33.375C35.0355 33.375 35.875 32.5355 35.875 31.5C35.875 30.4645 35.0355 29.625 34 29.625C32.9645 29.625 32.125 30.4645 32.125 31.5C32.125 32.5355 32.9645 33.375 34 33.375Z" fill="url(#paint2_linear_260111_1136)"/>
<path d="M20.6248 21.5002C23.3345 20.651 26.1601 20.2293 28.9998 20.2503C31.8394 20.2293 34.665 20.651 37.3748 21.5002" stroke="url(#paint3_linear_260111_1136)" stroke-width="1.875" stroke-linecap="round" stroke-linejoin="round"/>
<path d="M37.3748 36.5C34.665 37.3493 31.8394 37.771 28.9998 37.75C26.1601 37.771 23.3345 37.3493 20.6248 36.5" stroke="url(#paint4_linear_260111_1136)" stroke-width="1.875" stroke-linecap="round" stroke-linejoin="round"/>
<path d="M33.219 37.4531L35.1096 41.2031C35.2312 41.4589 35.4381 41.6643 35.6947 41.784C35.9514 41.9038 36.2417 41.9304 36.5159 41.8594C40.344 40.9219 43.6565 39.2969 46.0627 37.2031C46.2441 37.0431 46.3759 36.8344 46.4424 36.6018C46.5089 36.3691 46.5072 36.1224 46.4377 35.8906L41.1409 18.2031C41.0894 18.0221 40.996 17.8557 40.8685 17.7173C40.7409 17.5789 40.5827 17.4724 40.4065 17.4063C38.91 16.7923 37.3624 16.3113 35.7815 15.9688C35.4777 15.9022 35.16 15.9499 34.8891 16.1026C34.6182 16.2554 34.413 16.5025 34.3127 16.7969L33.0784 20.5313" stroke="url(#paint5_linear_260111_1136)" stroke-width="1.875" stroke-linecap="round" stroke-linejoin="round"/>
<path d="M24.7819 37.4531L22.8912 41.2031C22.7695 41.4589 22.5626 41.6643 22.306 41.784C22.0494 41.9038 21.7591 41.9304 21.4849 41.8594C17.6568 40.9219 14.3443 39.2969 11.9381 37.2031C11.7567 37.0431 11.6249 36.8344 11.5585 36.6018C11.492 36.3691 11.4936 36.1224 11.5631 35.8906L16.86 18.2031C16.9115 18.0221 17.0048 17.8557 17.1323 17.7173C17.2599 17.5789 17.4181 17.4724 17.5943 17.4063C19.0908 16.7923 20.6385 16.3113 22.2194 15.9688C22.5231 15.9022 22.8407 15.9499 23.1116 16.1026C23.3826 16.2554 23.5877 16.5025 23.6881 16.7969L24.9225 20.5313" stroke="url(#paint6_linear_260111_1136)" stroke-width="1.875" stroke-linecap="round" stroke-linejoin="round"/>
<path d="M24 33.375C25.0355 33.375 25.875 32.5355 25.875 31.5C25.875 30.4645 25.0355 29.625 24 29.625C22.9645 29.625 22.125 30.4645 22.125 31.5C22.125 32.5355 22.9645 33.375 24 33.375Z" fill="url(#paint7_linear_260111_1136)"/>
<path d="M34 33.375C35.0355 33.375 35.875 32.5355 35.875 31.5C35.875 30.4645 35.0355 29.625 34 29.625C32.9645 29.625 32.125 30.4645 32.125 31.5C32.125 32.5355 32.9645 33.375 34 33.375Z" fill="url(#paint8_linear_260111_1136)"/>
<path d="M20.6248 21.5002C23.3345 20.651 26.1601 20.2293 28.9998 20.2503C31.8394 20.2293 34.665 20.651 37.3748 21.5002" stroke="url(#paint9_linear_260111_1136)" stroke-width="1.875" stroke-linecap="round" stroke-linejoin="round"/>
<path d="M37.3748 36.5C34.665 37.3493 31.8394 37.771 28.9998 37.75C26.1601 37.771 23.3345 37.3493 20.6248 36.5" stroke="url(#paint10_linear_260111_1136)" stroke-width="1.875" stroke-linecap="round" stroke-linejoin="round"/>
<path d="M33.219 37.4531L35.1096 41.2031C35.2312 41.4589 35.4381 41.6643 35.6947 41.784C35.9514 41.9038 36.2417 41.9304 36.5159 41.8594C40.344 40.9219 43.6565 39.2969 46.0627 37.2031C46.2441 37.0431 46.3759 36.8344 46.4424 36.6018C46.5089 36.3691 46.5072 36.1224 46.4377 35.8906L41.1409 18.2031C41.0894 18.0221 40.996 17.8557 40.8685 17.7173C40.7409 17.5789 40.5827 17.4724 40.4065 17.4063C38.91 16.7923 37.3624 16.3113 35.7815 15.9688C35.4777 15.9022 35.16 15.9499 34.8891 16.1026C34.6182 16.2554 34.413 16.5025 34.3127 16.7969L33.0784 20.5313" stroke="url(#paint11_linear_260111_1136)" stroke-width="1.875" stroke-linecap="round" stroke-linejoin="round"/>
<path d="M24.7819 37.4531L22.8912 41.2031C22.7695 41.4589 22.5626 41.6643 22.306 41.784C22.0494 41.9038 21.7591 41.9304 21.4849 41.8594C17.6568 40.9219 14.3443 39.2969 11.9381 37.2031C11.7567 37.0431 11.6249 36.8344 11.5585 36.6018C11.492 36.3691 11.4936 36.1224 11.5631 35.8906L16.86 18.2031C16.9115 18.0221 17.0048 17.8557 17.1323 17.7173C17.2599 17.5789 17.4181 17.4724 17.5943 17.4063C19.0908 16.7923 20.6385 16.3113 22.2194 15.9688C22.5231 15.9022 22.8407 15.9499 23.1116 16.1026C23.3826 16.2554 23.5877 16.5025 23.6881 16.7969L24.9225 20.5313" stroke="url(#paint12_linear_260111_1136)" stroke-width="1.875" stroke-linecap="round" stroke-linejoin="round"/>
<defs>
<linearGradient id="paint0_linear_260111_1136" x1="14.5106" y1="-5.86264" x2="43.4895" y2="65.8626" gradientUnits="userSpaceOnUse">
<stop stop-color="#313137"/>
<stop offset="1" stop-color="#09090A"/>
</linearGradient>
<linearGradient id="paint1_linear_260111_1136" x1="25.1494" y1="29.4375" x2="22.8089" y2="31.6029" gradientUnits="userSpaceOnUse">
<stop stop-color="white"/>
<stop offset="1" stop-color="white"/>
</linearGradient>
<linearGradient id="paint2_linear_260111_1136" x1="35.1494" y1="29.4375" x2="32.8089" y2="31.6029" gradientUnits="userSpaceOnUse">
<stop stop-color="white"/>
<stop offset="1" stop-color="white"/>
</linearGradient>
<linearGradient id="paint3_linear_260111_1136" x1="34.1338" y1="20.187" x2="34.0083" y2="21.7429" gradientUnits="userSpaceOnUse">
<stop stop-color="white"/>
<stop offset="1" stop-color="white"/>
</linearGradient>
<linearGradient id="paint4_linear_260111_1136" x1="34.1338" y1="36.4375" x2="34.0083" y2="37.9934" gradientUnits="userSpaceOnUse">
<stop stop-color="white"/>
<stop offset="1" stop-color="white"/>
</linearGradient>
<linearGradient id="paint5_linear_260111_1136" x1="43.8959" y1="14.6415" x2="31.2487" y2="20.6871" gradientUnits="userSpaceOnUse">
<stop stop-color="white"/>
<stop offset="1" stop-color="white"/>
</linearGradient>
<linearGradient id="paint6_linear_260111_1136" x1="22.3273" y1="14.6415" x2="9.6802" y2="20.6871" gradientUnits="userSpaceOnUse">
<stop stop-color="white"/>
<stop offset="1" stop-color="white"/>
</linearGradient>
<linearGradient id="paint7_linear_260111_1136" x1="25.1494" y1="29.4375" x2="22.8089" y2="31.6029" gradientUnits="userSpaceOnUse">
<stop stop-color="white"/>
<stop offset="1" stop-color="white"/>
</linearGradient>
<linearGradient id="paint8_linear_260111_1136" x1="35.1494" y1="29.4375" x2="32.8089" y2="31.6029" gradientUnits="userSpaceOnUse">
<stop stop-color="white"/>
<stop offset="1" stop-color="white"/>
</linearGradient>
<linearGradient id="paint9_linear_260111_1136" x1="34.1338" y1="20.187" x2="34.0083" y2="21.7429" gradientUnits="userSpaceOnUse">
<stop stop-color="white"/>
<stop offset="1" stop-color="white"/>
</linearGradient>
<linearGradient id="paint10_linear_260111_1136" x1="34.1338" y1="36.4375" x2="34.0083" y2="37.9934" gradientUnits="userSpaceOnUse">
<stop stop-color="white"/>
<stop offset="1" stop-color="white"/>
</linearGradient>
<linearGradient id="paint11_linear_260111_1136" x1="43.8959" y1="14.6415" x2="31.2487" y2="20.6871" gradientUnits="userSpaceOnUse">
<stop stop-color="white"/>
<stop offset="1" stop-color="white"/>
</linearGradient>
<linearGradient id="paint12_linear_260111_1136" x1="22.3273" y1="14.6415" x2="9.6802" y2="20.6871" gradientUnits="userSpaceOnUse">
<stop stop-color="white"/>
<stop offset="1" stop-color="white"/>
</linearGradient>
</defs>
</svg>
