<svg width="21" height="24" viewBox="0 0 21 24" fill="none" xmlns="http://www.w3.org/2000/svg">
<path d="M7.74497 4.22058C7.66438 4.23698 7.53938 4.2662 7.53938 4.2662L7.44805 4.28901L7.10547 4.38026L6.96848 4.42589L6.85428 4.47151L6.64876 4.56276L6.4889 4.65401L6.23767 4.8137L5.98646 5.04182L5.75809 5.31557L5.57539 5.61212L5.43837 5.88587L5.30134 6.22806L5.18715 6.59305C5.18715 6.59305 5.12305 6.81365 5.0958 6.95805C5.0708 7.09052 5.06812 7.16665 5.05013 7.30025C5.02372 7.49629 5.00255 7.6054 4.98161 7.80212C4.95233 8.07731 4.95003 8.23289 4.93594 8.50927C4.92459 8.73187 4.92202 8.85687 4.9131 9.07961C4.90418 9.30234 4.89633 9.42708 4.89026 9.64988C4.87743 10.1219 4.89026 10.3868 4.89026 10.859V14.5089L4.93594 15.4214L4.95878 15.8321C4.95878 15.8321 4.99957 16.531 5.07297 16.9727C5.1102 17.1967 5.12464 17.3246 5.18715 17.543C5.25546 17.7816 5.3064 17.9132 5.41553 18.1361C5.48744 18.283 5.52899 18.3659 5.62106 18.5011C5.67122 18.5748 5.70192 18.6144 5.75809 18.6836C5.82572 18.7669 5.8631 18.8148 5.94078 18.8889C6.02341 18.9677 6.07518 19.0065 6.16916 19.0714C6.27111 19.1417 6.44324 19.2311 6.44324 19.2311L6.76296 19.3908L7.174 19.5504L7.65357 19.6873L8.11034 19.7786L8.49859 19.8242L9.22935 19.8926L10.2799 19.9611C10.2799 19.9611 11.2263 19.98 11.8329 19.9839C12.3144 19.9871 12.5845 19.9937 13.0661 19.9839C13.6552 19.9719 13.9849 19.9458 14.5733 19.9154C15.1889 19.8837 15.5344 19.8696 16.1491 19.8242C16.989 19.7622 17.4579 19.7031 18.2958 19.6189C18.6437 19.5839 19.1865 19.5276 19.1865 19.5276V23.3145C19.1865 23.3145 19.0195 23.3426 18.9125 23.3601C18.6897 23.3967 18.5649 23.4187 18.3415 23.4513C18.0685 23.4912 17.9136 23.5095 17.6421 23.5416L17.6335 23.5426C17.2951 23.5826 17.1044 23.5961 16.7657 23.6339C16.4623 23.6677 16.2927 23.6918 15.9892 23.7251C15.7308 23.7535 15.5858 23.7691 15.327 23.7935C15.0062 23.8238 14.8261 23.8385 14.5048 23.862C14.2285 23.8822 14.0734 23.8914 13.7969 23.9076C13.4492 23.928 13.2541 23.9381 12.9062 23.9532C12.6744 23.9633 12.5445 23.9738 12.3124 23.976C12.2322 23.9768 12.1069 23.976 12.1069 23.976C12.1069 23.976 11.6059 23.9952 11.2848 23.9989C11.0618 24.0014 10.9368 23.9989 10.7138 23.9989C10.5978 23.9989 10.5328 23.9995 10.4169 23.9989C10.0333 23.9968 9.81853 23.9766 9.43493 23.976C9.40818 23.976 9.39316 23.9762 9.36641 23.976C9.16107 23.975 9.13544 23.9711 8.84117 23.9532L8.08748 23.9076C7.79321 23.8898 7.78121 23.8807 7.58511 23.862C7.40666 23.8449 7.30641 23.8366 7.12834 23.8164C6.92281 23.7929 6.8078 23.7777 6.6031 23.7479C6.43332 23.7233 6.33847 23.7071 6.16916 23.6795C6.06208 23.662 6.00174 23.6539 5.89511 23.6339C5.76963 23.6103 5.6997 23.5946 5.57539 23.5654C5.40481 23.5254 5.31014 23.4988 5.14148 23.4513C4.93509 23.3933 4.81971 23.3591 4.61621 23.2917C4.46362 23.2411 4.37798 23.2126 4.22798 23.1548C3.92637 23.0385 3.7595 22.9648 3.47435 22.8126C3.3475 22.745 3.15462 22.6301 3.15462 22.6301C3.15462 22.6301 2.89829 22.4715 2.74355 22.3564C2.56587 22.2242 2.47254 22.1413 2.30964 21.9914C2.16125 21.8548 2.07855 21.7768 1.94424 21.6264C1.78151 21.4441 1.70112 21.3302 1.56194 21.1329L1.556 21.1245C1.43343 20.9508 1.36654 20.8517 1.25911 20.6683C1.15236 20.486 1.09696 20.3808 1.0079 20.1892C0.906981 19.9721 0.861159 19.8451 0.780068 19.6204L0.779528 19.6189C0.678142 19.3379 0.627623 19.1777 0.551156 18.8889C0.476443 18.6068 0.445477 18.4456 0.391293 18.1589C0.351048 17.9459 0.332505 17.8257 0.299944 17.6114C0.259441 17.3448 0.236894 17.1952 0.208595 16.927C0.186076 16.7136 0.180757 16.5934 0.162919 16.3795C0.136164 16.0588 0.116382 15.8794 0.0944071 15.5583C0.0712595 15.2201 0.0618099 15.0302 0.0487324 14.6915C0.0322326 14.264 0.0336736 14.0241 0.0258949 13.5964C0.0145525 12.9728 0.00614139 12.6232 0.00305753 11.9996C0.00142766 11.6699 -0.00292068 11.4851 0.00305753 11.1555C0.0108198 10.7276 0.0307038 10.4882 0.0487324 10.0605C0.0663859 9.64184 0.0692577 9.40667 0.0944071 8.98834C0.115851 8.63163 0.132237 8.43188 0.162919 8.07586C0.201356 7.62983 0.220259 7.37927 0.277107 6.93525C0.315984 6.63155 0.337069 6.46095 0.391293 6.15962C0.451025 5.8277 0.486091 5.64117 0.573993 5.31557C0.629821 5.10877 0.667075 4.99441 0.733857 4.79088C0.816443 4.53918 0.861844 4.3973 0.96223 4.15214C1.02874 3.98972 1.06804 3.8993 1.14493 3.74152C1.22001 3.58743 1.27912 3.47843 1.35047 3.35371L1.53316 3.03433C1.60451 2.90961 1.68315 2.82344 1.78438 2.69215C1.89656 2.54664 1.95798 2.46341 2.08127 2.32715C2.19966 2.19629 2.40099 2.00778 2.40099 2.00778L2.51517 1.89372C2.51517 1.89372 2.66531 1.76481 2.76639 1.68841C2.87883 1.60341 2.94601 1.56134 3.06327 1.4831C3.1867 1.40074 3.255 1.35288 3.383 1.27779C3.51373 1.20108 3.5899 1.16292 3.72556 1.09529C3.85765 1.02943 3.93251 0.993882 4.06812 0.935598C4.22634 0.867603 4.31716 0.834282 4.47919 0.775916C4.63837 0.718575 4.72082 0.683582 4.89026 0.639041L5.32418 0.524978C5.49363 0.480434 5.60154 0.451186 5.78093 0.410916C5.9584 0.371075 6.05864 0.351814 6.23767 0.319667C6.46855 0.278206 6.59933 0.262674 6.83142 0.228418C7.0186 0.200794 7.12325 0.182961 7.31106 0.159981C7.60439 0.124085 7.77003 0.114555 8.06468 0.0915435C8.33201 0.070664 8.48201 0.0604733 8.74978 0.0459191C8.94594 0.0352585 9.05592 0.0308288 9.25221 0.0231067C9.54643 0.0115302 10.0058 0.000294375 10.0058 0.000294375H10.6681C10.7573 0.000294375 10.8073 -0.000367969 10.8965 0.000294375C11.1821 0.00241491 11.342 0.0121732 11.6273 0.0231067C11.8325 0.0309687 11.9476 0.0334442 12.1526 0.0459191C12.3758 0.0595091 12.5007 0.0715164 12.7235 0.0915435C13.0629 0.122056 13.2536 0.137595 13.5913 0.182793C13.8238 0.21391 13.9543 0.231941 14.1851 0.274042C14.4363 0.319873 14.5755 0.354321 14.8246 0.410916C15.084 0.469877 15.231 0.497604 15.4869 0.570603C15.6577 0.619357 15.753 0.648978 15.9208 0.707476C16.1287 0.779993 16.2441 0.824885 16.446 0.912784C16.5996 0.979655 16.686 1.01729 16.8342 1.09529C17.0183 1.19211 17.1183 1.25312 17.291 1.36904C17.4287 1.46148 17.5057 1.51434 17.6335 1.61997C17.7357 1.70439 17.7867 1.75901 17.8848 1.84809C17.9828 1.93718 18.0441 1.98073 18.136 2.07622C18.2325 2.17655 18.2772 2.24138 18.3644 2.34997C18.4558 2.46398 18.5078 2.52758 18.5927 2.64652C18.6674 2.75112 18.7092 2.81011 18.7754 2.92027C18.8329 3.01598 18.8608 3.07222 18.9125 3.17121C18.9586 3.25953 18.9842 3.30919 19.0266 3.39933C19.064 3.47874 19.118 3.60464 19.118 3.60464L19.1408 3.65026C19.1408 3.65026 19.1842 3.7469 19.2093 3.80995C19.2614 3.94087 19.3235 4.15214 19.3235 4.15214L19.4606 4.56276C19.4606 4.56276 19.5196 4.7565 19.5519 4.88213C19.5815 4.99725 19.6204 5.17869 19.6204 5.17869C19.6204 5.17869 19.6616 5.37347 19.6889 5.49806C19.7065 5.5783 19.718 5.62292 19.7346 5.70338C19.78 5.92431 19.8259 6.27368 19.8259 6.27368L19.9401 7.27745L20.0315 8.6918C20.0315 8.6918 20.074 9.45617 20.0771 9.94648C20.0779 10.0534 20.0771 10.2202 20.0771 10.2202L20.1 11.0415V13.5964H15.4411V10.3115C15.4411 10.3115 15.4449 9.96382 15.4411 9.74115C15.437 9.49159 15.4183 9.10241 15.4183 9.10241L15.3955 8.53213L15.3498 8.05306C15.3498 8.05306 15.3163 7.70433 15.2813 7.48272C15.2516 7.2946 15.2275 7.19039 15.1899 7.00365C15.1558 6.83412 15.1392 6.7384 15.0986 6.57025C15.0661 6.43583 15.0504 6.35951 15.0072 6.22806C14.9685 6.11015 14.9385 6.04697 14.8931 5.9315C14.8579 5.84221 14.8017 5.70338 14.8017 5.70338C14.8017 5.70338 14.7104 5.5327 14.6418 5.42963C14.5609 5.30794 14.4135 5.13307 14.4135 5.13307L14.1166 4.83651C14.1166 4.83651 14.0351 4.76438 13.9795 4.72245C13.8868 4.65244 13.8297 4.61959 13.7284 4.56276C13.6414 4.51403 13.5914 4.48857 13.5 4.4487C13.3785 4.39568 13.3071 4.37334 13.1803 4.33464C13.0396 4.2917 12.8149 4.24339 12.8149 4.24339L12.3352 4.15214L11.8329 4.0837L11.2848 4.03808C11.2848 4.03808 10.9091 4.01971 10.6681 4.01526C10.4274 4.01081 10.2923 4.01166 10.0515 4.01526C9.77494 4.01941 9.61979 4.02368 9.34354 4.03808L9.34021 4.03825C9.19882 4.04562 9.07552 4.05205 8.97816 4.06089C8.97816 4.06089 8.82503 4.07433 8.72698 4.0837C8.63772 4.09223 8.58766 4.09638 8.49859 4.10652C8.49859 4.10652 8.38716 4.11975 8.31587 4.12932C8.25337 4.13772 8.21845 4.14323 8.15601 4.15214C8.09357 4.16105 8.05846 4.16513 7.99615 4.17495C7.89766 4.19048 7.84264 4.20068 7.74497 4.22058Z" fill="white"/>
<path d="M2.754 13.8729L2.55904 13.9185L2.21243 14.0096C2.21243 14.0096 2.01248 14.0777 1.97414 14.1918C1.95159 14.2589 1.97414 14.3741 1.97414 14.3741L2.01747 14.5563L2.08245 14.8752L2.14744 15.1713L2.19077 15.3535L2.45072 16.538L2.49404 16.743L2.55904 17.0391L2.64569 17.4263L2.68901 17.6086C2.68901 17.6086 2.71573 17.7012 2.754 17.7452C2.81019 17.8099 2.86677 17.8507 2.94896 17.8364C3.07895 17.8136 3.25224 17.768 3.25224 17.768L3.64217 17.6769L3.94545 17.6086L4.44369 17.4947L5.22355 17.3124L5.7218 17.1986L6.19838 17.0847L7.10824 16.8797L7.58479 16.7658L8.08302 16.6519L8.47296 16.5608L8.88457 16.4697L9.25284 16.3785L9.75107 16.2647L10.141 16.1735L10.7475 16.0368L11.2241 15.923L11.744 15.8091L12.5239 15.6269L12.8055 15.5585L13.4121 15.4218L13.6937 15.3535L13.997 15.2852L14.2786 15.2168L15.1884 15.0119L15.5784 14.9207L15.8816 14.8524L16.2716 14.7613L16.5532 14.693L16.9431 14.6018L17.5497 14.4651L18.3296 14.2829L18.8278 14.169L19.2177 14.0779C19.2177 14.0779 19.3043 14.0552 19.3694 14.0324C19.4496 14.0042 19.4816 13.9371 19.4993 13.8501C19.5082 13.8067 19.4993 13.7363 19.4993 13.7363L19.326 12.8251L19.2177 12.2329L19.131 11.7773L19.0444 11.299L18.8711 10.3879L18.8278 10.2056C18.8074 10.1202 18.7556 10.074 18.6762 10.0462C18.6199 10.0265 18.5245 10.0462 18.5245 10.0462L18.4162 10.069L18.0696 10.16L17.5063 10.2967L16.8998 10.4334L16.2716 10.5928L15.9899 10.6612L15.795 10.7068L14.9501 10.9117L14.7552 10.9573L12.7838 11.4356L12.0473 11.6179L11.6574 11.709L11.3758 11.7773L10.6392 11.9596L10.2493 12.0506L9.79441 12.1646L9.59944 12.2101L7.62813 12.6884L7.25986 12.7796L6.69663 12.9163L6.50166 12.9618L6.22004 13.0301L5.76512 13.144L5.3752 13.2352L4.81196 13.3718L4.44369 13.4629L3.96712 13.5768L3.59885 13.6679L2.754 13.8729Z" fill="white" fill-opacity="0.8"/>
</svg>
